<?xml version="1.0" encoding="UTF-8" standalone="no"?>
<!DOCTYPE svg PUBLIC "-//W3C//DTD SVG 1.1//EN" "http://www.w3.org/Graphics/SVG/1.1/DTD/svg11.dtd">
<svg width="100%" height="100%" viewBox="0 0 4073 923" version="1.1" xmlns="http://www.w3.org/2000/svg" xmlns:xlink="http://www.w3.org/1999/xlink" xml:space="preserve" xmlns:serif="http://www.serif.com/" style="fill-rule:evenodd;clip-rule:evenodd;stroke-linejoin:round;stroke-miterlimit:2;">
    <g transform="matrix(1,0,0,1,-3500,0)">
        <g id="The-Space:-Logomark" serif:id="The Space: Logomark" transform="matrix(1.09077,0,0,1,-1974.44,-1818.39)">
            <rect x="5018.86" y="1818.39" width="3733.33" height="922.222" style="fill:none;"/>
            <g transform="matrix(1.99446,0,0,2.17551,7850.64,2091.96)">
                <path d="M0,86.723L0,51.689C0,-8.312 -49.971,-57.467 -109.864,-53.869C-164.121,-50.61 -207.115,-5.576 -207.115,49.499L-207.115,86.723C-207.115,99.243 -200.545,144.19 -103.558,144.19C-6.57,144.19 0,99.243 0,86.723Z" style="fill:white;fill-rule:nonzero;"/>
            </g>
            <g transform="matrix(0.478671,0,0,0.522122,4757.12,1798.41)">
                <path d="M6031.14,327.167C6103.13,327.301 6175.16,345.787 6238.49,380.523C6341.11,436.818 6419.88,534.92 6453.55,647.402C6466.08,689.28 6472.47,732.991 6472.55,776.84C6472.62,825.752 6472.56,874.664 6472.56,923.575C6472.4,986.991 6436.92,1047.29 6386.2,1086.06C6337.85,1123.02 6278.65,1143.51 6219.07,1155.86C6157.04,1168.71 6093.44,1172.89 6030.05,1172.83C5942.54,1172.75 5854.43,1165.43 5771.86,1136.16C5717.3,1116.82 5665.54,1087.22 5630.06,1039.91C5605.12,1006.67 5590.19,965.777 5589.93,924.223C5589.81,871.845 5589.82,819.466 5589.93,767.087C5590.41,658.262 5632.38,550.125 5706.53,469.598C5784.36,385.074 5895.86,332.569 6011.84,327.573C6018.27,327.297 6024.69,327.166 6031.14,327.167ZM6029.7,346.814C5937.8,347.109 5846.73,378.07 5773.43,434.767C5678.76,508.003 5617.15,621.994 5610.26,744.311C5609.82,752.135 5609.59,759.97 5609.58,767.806C5609.54,819.721 5609.58,871.637 5609.58,923.552C5609.69,971.747 5632.55,1018.99 5667.79,1052.96C5701.94,1085.86 5745.76,1107.24 5790.17,1121.63C5868.14,1146.89 5951.28,1153.33 6033.59,1153.18C6126.68,1153.02 6221.35,1145.06 6307.15,1108.69C6350.69,1090.23 6391.45,1063.71 6419.59,1024.18C6440.29,995.101 6452.69,959.846 6452.91,924.139C6453.03,875.05 6452.97,825.962 6452.91,776.873C6452.7,675.263 6415.68,574.412 6350.09,496.894C6297.92,435.24 6228.07,388.367 6150.95,364.761C6112.19,352.898 6071.61,346.888 6031.11,346.813C6030.65,346.813 6030.17,346.813 6029.7,346.814ZM6037.85,1129.98C6032.15,1129.98 6027.5,1125.32 6027.5,1119.63L6027.5,1046.27C6027.5,1040.58 6032.15,1035.93 6037.85,1035.93C6043.53,1035.93 6048.19,1040.58 6048.19,1046.27L6048.19,1119.63C6048.19,1125.32 6043.53,1129.98 6037.85,1129.98ZM6070.45,1115.13C6064.76,1115.13 6060.1,1110.47 6060.1,1104.78L6060.1,1061.13C6060.1,1055.44 6064.76,1050.78 6070.45,1050.78C6076.14,1050.78 6080.8,1055.44 6080.8,1061.13L6080.8,1104.78C6080.8,1110.47 6076.14,1115.13 6070.45,1115.13ZM6005.24,1050.78C6010.93,1050.78 6015.59,1055.43 6015.59,1061.12L6015.59,1104.78C6015.59,1110.47 6010.93,1115.12 6005.24,1115.12C5999.55,1115.12 5994.9,1110.47 5994.9,1104.78L5994.9,1061.12C5994.9,1055.43 5999.55,1050.78 6005.24,1050.78ZM6101.8,1105.22C6096.11,1105.22 6091.45,1100.57 6091.45,1094.88L6091.45,1071.03C6091.45,1065.34 6096.11,1060.68 6101.8,1060.68C6107.49,1060.68 6112.14,1065.34 6112.14,1071.03L6112.14,1094.88C6112.14,1100.57 6107.49,1105.22 6101.8,1105.22ZM5973.89,1060.68C5979.58,1060.68 5984.24,1065.34 5984.24,1071.02L5984.24,1094.88C5984.24,1100.57 5979.58,1105.22 5973.89,1105.22C5968.2,1105.22 5963.55,1100.57 5963.55,1094.88L5963.55,1071.02C5963.55,1065.34 5968.2,1060.68 5973.89,1060.68ZM6201.03,1062.94C6209.57,1063.1 6216.5,1073.14 6212.49,1081.44C6209,1088.69 6198,1090.94 6191.96,1085.19C6184.9,1078.46 6188.9,1063.16 6200.7,1062.94C6200.86,1062.94 6200.86,1062.94 6201.03,1062.94ZM6251.58,1053.75C6258.72,1053.88 6264.55,1062.29 6261.19,1069.25C6258.26,1075.32 6249.04,1077.21 6243.98,1072.39C6238.04,1066.74 6241.41,1053.93 6251.3,1053.75C6251.44,1053.74 6251.44,1053.74 6251.58,1053.75ZM6286.61,587.05C6279.1,587.05 6271.43,587.992 6263.81,589.85C6240.16,595.617 6170.15,609.038 6031.24,609.038C5892.34,609.038 5822.33,595.617 5798.67,589.85C5791.06,587.992 5783.39,587.05 5775.87,587.05C5763.39,587.05 5751.7,589.6 5741.12,594.63C5708.83,609.975 5687.95,642.988 5687.95,678.734L5687.95,882.442C5687.95,914.35 5720.67,946.675 5777.71,971.121C5822.2,990.192 5902.09,1012.92 6030.06,1012.92C6158.1,1012.92 6238.56,990.209 6283.52,971.155C6341.36,946.638 6374.53,914.305 6374.53,882.442L6374.53,678.734C6374.53,642.988 6353.66,609.975 6321.36,594.63C6310.78,589.6 6299.09,587.05 6286.61,587.05ZM6212.1,752.583C6216.44,753.457 6219.26,757.693 6218.39,762.037C6217.51,766.381 6213.28,769.199 6208.93,768.326C6204.59,767.452 6201.77,763.216 6202.64,758.872C6203.52,754.528 6207.75,751.71 6212.1,752.583ZM6270.39,700.699C6283.08,703.251 6291.32,715.629 6288.77,728.324C6286.21,741.019 6273.84,749.254 6261.14,746.701C6248.45,744.149 6240.21,731.771 6242.76,719.076C6245.32,706.381 6257.69,698.147 6270.39,700.699ZM5707.6,698.139L5707.6,721.143C5707.73,691.903 5724.84,666.765 5749.55,655.022C5763.34,648.472 5779.19,647.968 5794.02,651.585C5820.95,658.151 5892.3,671.33 6031.24,671.33C6169.7,671.33 6241.03,658.246 6268.16,651.582C6289.5,645.99 6312.22,651.166 6329.03,665.446C6344.85,678.915 6354.88,698.976 6354.88,721.38L6354.88,698.375C6354.88,668.108 6336.57,642.117 6310.42,630.886C6297.68,625.471 6283.49,624.512 6270.15,628.164C6244.58,634.574 6173.18,648.325 6031.24,648.325C5892.3,648.325 5820.95,635.146 5794.02,628.58C5779.19,624.963 5763.34,625.467 5749.55,632.017C5724.84,643.76 5707.73,668.898 5707.6,698.139Z" style="fill:rgb(35,31,32);"/>
            </g>
            <g transform="matrix(0.992628,0,0,0.305556,99.0149,1715.68)">
                <rect x="5123.02" y="2446.17" width="3427.78" height="25" style="fill:rgb(35,31,32);"/>
            </g>
            <g transform="matrix(2.11304,0,0,2.30485,-8236.26,-3227.69)">
                <text x="6350.59px" y="2530.89px" style="font-family:'ProximaNova-Regular', 'Proxima Nova';font-size:50px;fill:rgb(35,31,32);">W<tspan x="6443.24px 6530.99px 6610.89px 6690.44px 6769.24px 6844.24px 6924.79px 7008.09px 7086.04px 7148.44px 7208.49px 7270.89px 7354.19px 7441.94px 7531.89px 7621.84px 7706.34px 7791.24px 7852.69px 7930.69px " y="2530.89px 2530.89px 2530.89px 2530.89px 2530.89px 2530.89px 2530.89px 2530.89px 2530.89px 2530.89px 2530.89px 2530.89px 2530.89px 2530.89px 2530.89px 2530.89px 2530.89px 2530.89px 2530.89px 2530.89px ">ORKSPACE | COMMUNITY</tspan></text>
            </g>
            <g transform="matrix(562.863,0,0,610.274,5176.95,2392.77)">
                <path d="M0.59,-0.481L0.409,-0.481L0.409,0L0.194,0L0.194,-0.481L0.013,-0.481L0.013,-0.694L0.59,-0.694L0.59,-0.481Z" style="fill:rgb(35,31,32);fill-rule:nonzero;"/>
            </g>
            <g transform="matrix(562.863,0,0,610.274,5567.58,2392.77)">
                <path d="M0.667,0L0.451,0L0.451,-0.24L0.258,-0.24L0.258,0L0.041,0L0.041,-0.694L0.258,-0.694L0.258,-0.456L0.451,-0.456L0.451,-0.694L0.667,-0.694L0.667,0Z" style="fill:rgb(35,31,32);fill-rule:nonzero;"/>
            </g>
            <g transform="matrix(562.863,0,0,610.274,6016.18,2392.77)">
                <path d="M0.542,-0.504L0.542,-0.694L0.041,-0.694L0.041,0L0.543,0L0.543,-0.196L0.257,-0.196L0.257,-0.265L0.537,-0.265L0.537,-0.439L0.257,-0.439L0.257,-0.504L0.542,-0.504Z" style="fill:rgb(35,31,32);fill-rule:nonzero;"/>
            </g>
            <g transform="matrix(562.863,0,0,610.274,6622.39,2392.77)">
                <path d="M0.417,-0.425C0.547,-0.402 0.607,-0.299 0.594,-0.204C0.582,-0.124 0.559,-0.065 0.496,-0.015C0.431,0.034 0.334,0.03 0.256,0.029C0.174,0.027 0.051,0.003 0.051,0.003L0.093,-0.204C0.093,-0.204 0.199,-0.188 0.278,-0.183C0.318,-0.181 0.364,-0.172 0.372,-0.21C0.375,-0.224 0.376,-0.251 0.32,-0.258C0.32,-0.258 0.318,-0.259 0.255,-0.267C0.193,-0.276 0.163,-0.283 0.163,-0.283C0.061,-0.304 0.02,-0.406 0.03,-0.483C0.041,-0.564 0.063,-0.623 0.127,-0.672C0.191,-0.722 0.269,-0.726 0.345,-0.723C0.42,-0.719 0.559,-0.695 0.559,-0.695L0.514,-0.495C0.514,-0.495 0.393,-0.51 0.342,-0.514C0.278,-0.518 0.255,-0.523 0.247,-0.494C0.241,-0.472 0.255,-0.457 0.268,-0.452C0.268,-0.452 0.279,-0.447 0.348,-0.437C0.386,-0.43 0.417,-0.425 0.417,-0.425Z" style="fill:rgb(35,31,32);fill-rule:nonzero;"/>
            </g>
            <g transform="matrix(562.863,0,0,610.274,7019.77,2392.77)">
                <path d="M0.597,-0.187C0.539,-0.129 0.467,-0.1 0.385,-0.1L0.259,-0.1L0.259,0L0.042,0L0.042,-0.694L0.385,-0.694C0.467,-0.694 0.539,-0.667 0.597,-0.609C0.655,-0.551 0.684,-0.48 0.684,-0.398C0.684,-0.315 0.655,-0.245 0.597,-0.187ZM0.385,-0.48L0.259,-0.48L0.259,-0.315L0.385,-0.315C0.431,-0.315 0.467,-0.353 0.467,-0.398C0.467,-0.444 0.431,-0.48 0.385,-0.48Z" style="fill:rgb(35,31,32);fill-rule:nonzero;"/>
            </g>
            <g transform="matrix(562.863,0,0,610.274,7861.25,2392.77)">
                <path d="M0.637,-0.052C0.554,0.016 0.502,0.027 0.398,0.027C0.296,0.027 0.208,-0.009 0.135,-0.082C0.062,-0.155 0.026,-0.243 0.026,-0.345C0.026,-0.448 0.062,-0.536 0.135,-0.609C0.208,-0.682 0.296,-0.718 0.398,-0.718C0.503,-0.718 0.59,-0.667 0.632,-0.635L0.511,-0.453C0.51,-0.454 0.51,-0.454 0.509,-0.455C0.478,-0.486 0.441,-0.501 0.398,-0.501C0.355,-0.501 0.317,-0.486 0.287,-0.455C0.256,-0.425 0.241,-0.388 0.241,-0.345C0.241,-0.302 0.25,-0.267 0.281,-0.237C0.311,-0.206 0.355,-0.194 0.398,-0.194C0.441,-0.194 0.49,-0.201 0.521,-0.232C0.522,-0.233 0.524,-0.235 0.524,-0.235L0.659,-0.074L0.637,-0.052Z" style="fill:rgb(35,31,32);fill-rule:nonzero;"/>
            </g>
            <g transform="matrix(562.863,0,0,610.274,8281.14,2392.77)">
                <path d="M0.542,-0.504L0.542,-0.694L0.041,-0.694L0.041,0L0.543,0L0.543,-0.196L0.257,-0.196L0.257,-0.265L0.537,-0.265L0.537,-0.439L0.257,-0.439L0.257,-0.504L0.542,-0.504Z" style="fill:rgb(35,31,32);fill-rule:nonzero;"/>
            </g>
        </g>
    </g>
</svg>
