<?xml version="1.0" encoding="UTF-8" standalone="no"?>
<!DOCTYPE svg PUBLIC "-//W3C//DTD SVG 1.1//EN" "http://www.w3.org/Graphics/SVG/1.1/DTD/svg11.dtd">
<svg width="100%" height="100%" viewBox="0 0 3728 478" version="1.1" xmlns="http://www.w3.org/2000/svg" xmlns:xlink="http://www.w3.org/1999/xlink" xml:space="preserve" xmlns:serif="http://www.serif.com/" style="fill-rule:evenodd;clip-rule:evenodd;stroke-linejoin:round;stroke-miterlimit:2;">
    <g id="Artboard1" transform="matrix(1,0,0,0.714424,0,0)">
        <rect x="0" y="0" width="3728.68" height="669.089" style="fill:none;"/>
        <g id="helmet_white" transform="matrix(2.17551,0,0,3.04512,2908.41,197.192)">
            <path d="M0,86.723L0,51.689C0,-8.312 -49.971,-57.467 -109.864,-53.869C-164.121,-50.61 -207.115,-5.576 -207.115,49.499L-207.115,86.723C-207.115,99.243 -200.545,144.19 -103.558,144.19C-6.57,144.19 0,99.243 0,86.723Z" style="fill:white;fill-rule:nonzero;"/>
        </g>
        <g id="helmet_outline" transform="matrix(0.522122,0,0,0.73083,-465.925,-213.694)">
            <path d="M6031.14,327.167C6103.13,327.301 6175.16,345.787 6238.49,380.523C6341.11,436.818 6419.88,534.92 6453.55,647.402C6466.08,689.28 6472.47,732.991 6472.55,776.84C6472.62,825.752 6472.56,874.664 6472.56,923.575C6472.4,986.991 6436.92,1047.29 6386.2,1086.06C6337.85,1123.02 6278.65,1143.51 6219.07,1155.86C6157.04,1168.71 6093.44,1172.89 6030.05,1172.83C5942.54,1172.75 5854.43,1165.43 5771.86,1136.16C5717.3,1116.82 5665.54,1087.22 5630.06,1039.91C5605.12,1006.67 5590.19,965.777 5589.93,924.223C5589.81,871.845 5589.82,819.466 5589.93,767.087C5590.41,658.262 5632.38,550.125 5706.53,469.598C5784.36,385.074 5895.86,332.569 6011.84,327.573C6018.27,327.297 6024.69,327.166 6031.14,327.167ZM6029.7,346.814C5937.8,347.109 5846.73,378.07 5773.43,434.767C5678.76,508.003 5617.15,621.994 5610.26,744.311C5609.82,752.135 5609.59,759.97 5609.58,767.806C5609.54,819.721 5609.58,871.637 5609.58,923.552C5609.69,971.747 5632.55,1018.99 5667.79,1052.96C5701.94,1085.86 5745.76,1107.24 5790.17,1121.63C5868.14,1146.89 5951.28,1153.33 6033.59,1153.18C6126.68,1153.02 6221.35,1145.06 6307.15,1108.69C6350.69,1090.23 6391.45,1063.71 6419.59,1024.18C6440.29,995.101 6452.69,959.846 6452.91,924.139C6453.03,875.05 6452.97,825.962 6452.91,776.873C6452.7,675.263 6415.68,574.412 6350.09,496.894C6297.92,435.24 6228.07,388.367 6150.95,364.761C6112.19,352.898 6071.61,346.888 6031.11,346.813C6030.65,346.813 6030.17,346.813 6029.7,346.814ZM6037.85,1129.98C6032.15,1129.98 6027.5,1125.32 6027.5,1119.63L6027.5,1046.27C6027.5,1040.58 6032.15,1035.93 6037.85,1035.93C6043.53,1035.93 6048.19,1040.58 6048.19,1046.27L6048.19,1119.63C6048.19,1125.32 6043.53,1129.98 6037.85,1129.98ZM6070.45,1115.13C6064.76,1115.13 6060.1,1110.47 6060.1,1104.78L6060.1,1061.13C6060.1,1055.44 6064.76,1050.78 6070.45,1050.78C6076.14,1050.78 6080.8,1055.44 6080.8,1061.13L6080.8,1104.78C6080.8,1110.47 6076.14,1115.13 6070.45,1115.13ZM6005.24,1050.78C6010.93,1050.78 6015.59,1055.43 6015.59,1061.12L6015.59,1104.78C6015.59,1110.47 6010.93,1115.12 6005.24,1115.12C5999.55,1115.12 5994.9,1110.47 5994.9,1104.78L5994.9,1061.12C5994.9,1055.43 5999.55,1050.78 6005.24,1050.78ZM6101.8,1105.22C6096.11,1105.22 6091.45,1100.57 6091.45,1094.88L6091.45,1071.03C6091.45,1065.34 6096.11,1060.68 6101.8,1060.68C6107.49,1060.68 6112.14,1065.34 6112.14,1071.03L6112.14,1094.88C6112.14,1100.57 6107.49,1105.22 6101.8,1105.22ZM5973.89,1060.68C5979.58,1060.68 5984.24,1065.34 5984.24,1071.02L5984.24,1094.88C5984.24,1100.57 5979.58,1105.22 5973.89,1105.22C5968.2,1105.22 5963.55,1100.57 5963.55,1094.88L5963.55,1071.02C5963.55,1065.34 5968.2,1060.68 5973.89,1060.68ZM6201.03,1062.94C6209.57,1063.1 6216.5,1073.14 6212.49,1081.44C6209,1088.69 6198,1090.94 6191.96,1085.19C6184.9,1078.46 6188.9,1063.16 6200.7,1062.94C6200.86,1062.94 6200.86,1062.94 6201.03,1062.94ZM6251.58,1053.75C6258.72,1053.88 6264.55,1062.29 6261.19,1069.25C6258.26,1075.32 6249.04,1077.21 6243.98,1072.39C6238.04,1066.74 6241.41,1053.93 6251.3,1053.75C6251.44,1053.74 6251.44,1053.74 6251.58,1053.75ZM6286.61,587.05C6279.1,587.05 6271.43,587.992 6263.81,589.85C6240.16,595.617 6170.15,609.038 6031.24,609.038C5892.34,609.038 5822.33,595.617 5798.67,589.85C5791.06,587.992 5783.39,587.05 5775.87,587.05C5763.39,587.05 5751.7,589.6 5741.12,594.63C5708.83,609.975 5687.95,642.988 5687.95,678.734L5687.95,882.442C5687.95,914.35 5720.67,946.675 5777.71,971.121C5822.2,990.192 5902.09,1012.92 6030.06,1012.92C6158.1,1012.92 6238.56,990.209 6283.52,971.155C6341.36,946.638 6374.53,914.305 6374.53,882.442L6374.53,678.734C6374.53,642.988 6353.66,609.975 6321.36,594.63C6310.78,589.6 6299.09,587.05 6286.61,587.05ZM6212.1,752.583C6216.44,753.457 6219.26,757.693 6218.39,762.037C6217.51,766.381 6213.28,769.199 6208.93,768.326C6204.59,767.452 6201.77,763.216 6202.64,758.872C6203.52,754.528 6207.75,751.71 6212.1,752.583ZM6270.39,700.699C6283.08,703.251 6291.32,715.629 6288.77,728.324C6286.21,741.019 6273.84,749.254 6261.14,746.701C6248.45,744.149 6240.21,731.771 6242.76,719.076C6245.32,706.381 6257.69,698.147 6270.39,700.699ZM5707.6,698.139L5707.6,721.143C5707.73,691.903 5724.84,666.765 5749.55,655.022C5763.34,648.472 5779.19,647.968 5794.02,651.585C5820.95,658.151 5892.3,671.33 6031.24,671.33C6169.7,671.33 6241.03,658.246 6268.16,651.582C6289.5,645.99 6312.22,651.166 6329.03,665.446C6344.85,678.915 6354.88,698.976 6354.88,721.38L6354.88,698.375C6354.88,668.108 6336.57,642.117 6310.42,630.886C6297.68,625.471 6283.49,624.512 6270.15,628.164C6244.58,634.574 6173.18,648.325 6031.24,648.325C5892.3,648.325 5820.95,635.146 5794.02,628.58C5779.19,624.963 5763.34,625.467 5749.55,632.017C5724.84,643.76 5707.73,668.898 5707.6,698.139Z" style="fill:rgb(35,31,32);"/>
        </g>
        <g id="white" transform="matrix(1,0,0,1.39973,0,0)">
            <path d="M1824.68,182.317C1904.49,196.353 1941.33,259.211 1933.35,317.188C1925.98,366.009 1911.86,402.016 1873.18,432.529C1833.27,462.433 1773.72,459.992 1725.83,459.381C1675.49,458.161 1599.97,443.514 1599.97,443.514L1625.76,317.188C1625.76,317.188 1690.84,326.952 1739.34,330.003C1763.9,331.224 1792.14,336.716 1797.05,313.526C1798.89,304.982 1799.51,288.505 1765.12,284.233C1765.12,284.233 1763.9,283.622 1725.22,278.74C1687.15,273.248 1668.73,268.976 1668.73,268.976C1606.11,256.16 1580.94,193.912 1587.08,146.921C1593.83,97.489 1607.34,61.483 1646.63,31.579C1685.92,1.065 1733.81,-1.376 1780.47,0.455C1826.52,2.896 1911.86,17.543 1911.86,17.543L1884.23,139.598C1884.23,139.598 1809.94,130.444 1778.63,128.003C1739.34,125.561 1725.22,122.51 1720.31,140.208C1716.62,153.634 1725.22,162.788 1733.2,165.84C1733.2,165.84 1739.95,168.891 1782.32,174.994C1805.64,179.266 1824.68,182.317 1824.68,182.317ZM3311.07,409.949C3260.11,451.448 3228.18,458.161 3164.33,458.161C3101.71,458.161 3047.68,436.191 3002.86,391.641C2958.04,347.091 2935.94,293.387 2935.94,231.139C2935.94,168.281 2958.04,114.576 3002.86,70.026C3047.68,25.476 3101.71,3.507 3164.33,3.507C3228.8,3.507 3282.21,34.631 3308,54.159L3233.71,165.229C3233.09,164.619 3233.09,164.619 3232.48,164.009C3213.45,145.09 3190.73,135.936 3164.33,135.936C3137.93,135.936 3114.6,145.09 3096.18,164.009C3077.15,182.317 3067.94,204.897 3067.94,231.139C3067.94,257.381 3073.47,278.74 3092.5,297.048C3110.92,315.967 3137.93,323.29 3164.33,323.29C3190.73,323.29 3220.82,319.018 3239.85,300.1C3240.46,299.49 3241.69,298.269 3241.69,298.269L3324.57,396.523L3311.07,409.949ZM354.253,148.142L243.127,148.142L243.127,441.683L111.126,441.683L111.126,148.142L0,148.142L0,18.153L354.253,18.153L354.253,148.142ZM3710.75,134.105L3535.77,134.105L3535.77,173.773L3707.68,173.773L3707.68,279.961L3535.77,279.961L3535.77,322.07L3711.37,322.07L3711.37,441.683L3403.16,441.683L3403.16,18.153L3710.75,18.153L3710.75,134.105ZM1240.19,134.105L1065.21,134.105L1065.21,173.773L1237.12,173.773L1237.12,279.961L1065.21,279.961L1065.21,322.07L1240.81,322.07L1240.81,441.683L932.6,441.683L932.6,18.153L1240.19,18.153L1240.19,134.105ZM576.505,441.683L443.276,441.683L443.276,18.153L576.505,18.153L576.505,163.398L694.999,163.398L694.999,18.153L827.613,18.153L827.613,441.683L694.999,441.683L694.999,295.218L576.505,295.218L576.505,441.683ZM2161.13,441.683L2027.9,441.683L2027.9,18.153L2238.49,18.153C2288.83,18.153 2333.03,34.631 2368.64,70.026C2404.25,105.422 2422.06,148.752 2422.06,198.794C2422.06,249.447 2404.25,292.166 2368.64,327.562C2333.03,362.958 2288.83,380.656 2238.49,380.656L2161.13,380.656L2161.13,441.683ZM2238.49,148.752L2161.13,148.752L2161.13,249.447L2238.49,249.447C2266.73,249.447 2288.83,226.257 2288.83,198.794C2288.83,170.722 2266.73,148.752 2238.49,148.752Z" style="fill:white;fill-rule:nonzero;"/>
        </g>
    </g>
</svg>
